<?xml version="1.0" encoding="UTF-8" standalone="no"?>
<!DOCTYPE svg PUBLIC "-//W3C//DTD SVG 1.1//EN"
 "http://www.w3.org/Graphics/SVG/1.1/DTD/svg11.dtd">
<!-- Generated by graphviz version 16.0.0 (20260814.1018)
 -->
<!-- Title: FlujoRegistrar Pages: 1 -->
<svg width="761pt" height="1447pt"
 viewBox="0.00 0.00 761.00 1447.00" xmlns="http://www.w3.org/2000/svg" xmlns:xlink="http://www.w3.org/1999/xlink">
<g id="graph0" class="graph" transform="scale(1 1) rotate(0) translate(4 1442.7)">
<title>FlujoRegistrar</title>
<polygon fill="white" stroke="none" points="-4,4 -4,-1442.7 756.9,-1442.7 756.9,4 -4,4"/>
<!-- N1 -->
<g id="node1" class="node">
<title>N1</title>
<path fill="#f5f5f5" stroke="black" d="M168.22,-1438.7C168.22,-1438.7 48.59,-1438.7 48.59,-1438.7 42.59,-1438.7 36.59,-1432.7 36.59,-1426.7 36.59,-1426.7 36.59,-1414.7 36.59,-1414.7 36.59,-1408.7 42.59,-1402.7 48.59,-1402.7 48.59,-1402.7 168.22,-1402.7 168.22,-1402.7 174.22,-1402.7 180.22,-1408.7 180.22,-1414.7 180.22,-1414.7 180.22,-1426.7 180.22,-1426.7 180.22,-1432.7 174.22,-1438.7 168.22,-1438.7"/>
<text xml:space="preserve" text-anchor="middle" x="108.4" y="-1416.5" font-family="Helvetica,sans-Serif" font-size="14.00">1. Buscar estudiante</text>
</g>
<!-- N2 -->
<g id="node2" class="node">
<title>N2</title>
<polygon fill="#fff3cd" stroke="black" points="108.4,-1365.7 5.23,-1324.1 108.4,-1282.5 211.58,-1324.1 108.4,-1365.7"/>
<text xml:space="preserve" text-anchor="middle" x="108.4" y="-1328.3" font-family="Helvetica,sans-Serif" font-size="14.00">2. ¿No existe</text>
<text xml:space="preserve" text-anchor="middle" x="108.4" y="-1311.5" font-family="Helvetica,sans-Serif" font-size="14.00">el estudiante?</text>
</g>
<!-- N1&#45;&gt;N2 -->
<g id="edge1" class="edge">
<title>N1&#45;&gt;N2</title>
<path fill="none" stroke="black" d="M108.4,-1402.35C108.4,-1395.15 108.4,-1386.38 108.4,-1377.36"/>
<polygon fill="black" stroke="black" points="111.9,-1377.42 108.4,-1367.42 104.9,-1377.42 111.9,-1377.42"/>
</g>
<!-- N3 -->
<g id="node3" class="node">
<title>N3</title>
<polygon fill="#f8d7da" stroke="black" points="166.81,-1179.3 0,-1179.3 0,-1137.7 166.81,-1137.7 166.81,-1179.3"/>
<text xml:space="preserve" text-anchor="middle" x="83.4" y="-1162.7" font-family="Helvetica,sans-Serif" font-size="14.00">3. 404</text>
<text xml:space="preserve" text-anchor="middle" x="83.4" y="-1145.9" font-family="Helvetica,sans-Serif" font-size="14.00">&quot;El estudiante no existe&quot;</text>
</g>
<!-- N2&#45;&gt;N3 -->
<g id="edge2" class="edge">
<title>N2&#45;&gt;N3</title>
<path fill="none" stroke="black" d="M102.54,-1284.75C98.17,-1256.12 92.26,-1217.48 88.18,-1190.73"/>
<polygon fill="black" stroke="black" points="91.69,-1190.56 86.72,-1181.2 84.77,-1191.61 91.69,-1190.56"/>
<text xml:space="preserve" text-anchor="middle" x="104.89" y="-1254.6" font-family="Helvetica,sans-Serif" font-size="11.00">sí</text>
</g>
<!-- N4 -->
<g id="node4" class="node">
<title>N4</title>
<path fill="#f5f5f5" stroke="black" d="M255.61,-1233.3C255.61,-1233.3 135.2,-1233.3 135.2,-1233.3 129.2,-1233.3 123.2,-1227.3 123.2,-1221.3 123.2,-1221.3 123.2,-1209.3 123.2,-1209.3 123.2,-1203.3 129.2,-1197.3 135.2,-1197.3 135.2,-1197.3 255.61,-1197.3 255.61,-1197.3 261.61,-1197.3 267.61,-1203.3 267.61,-1209.3 267.61,-1209.3 267.61,-1221.3 267.61,-1221.3 267.61,-1227.3 261.61,-1233.3 255.61,-1233.3"/>
<text xml:space="preserve" text-anchor="middle" x="195.4" y="-1211.1" font-family="Helvetica,sans-Serif" font-size="14.00">4. Buscar asignatura</text>
</g>
<!-- N2&#45;&gt;N4 -->
<g id="edge3" class="edge">
<title>N2&#45;&gt;N4</title>
<path fill="none" stroke="black" d="M133.57,-1292.21C146.45,-1276.4 161.96,-1257.36 174.22,-1242.3"/>
<polygon fill="black" stroke="black" points="176.83,-1244.65 180.43,-1234.68 171.4,-1240.22 176.83,-1244.65"/>
<text xml:space="preserve" text-anchor="middle" x="170.9" y="-1254.6" font-family="Helvetica,sans-Serif" font-size="11.00">no</text>
</g>
<!-- Fin -->
<g id="node18" class="node">
<title>Fin</title>
<ellipse fill="#e2e3e5" stroke="black" cx="235.4" cy="-28.45" rx="24.45" ry="24.45"/>
<ellipse fill="none" stroke="black" cx="235.4" cy="-28.45" rx="28.45" ry="28.45"/>
<text xml:space="preserve" text-anchor="middle" x="235.4" y="-24.25" font-family="Helvetica,sans-Serif" font-size="14.00">Fin</text>
</g>
<!-- N3&#45;&gt;Fin -->
<g id="edge20" class="edge">
<title>N3&#45;&gt;Fin</title>
<path fill="none" stroke="black" d="M79.77,-1137.46C75.05,-1109.62 67.4,-1057.61 67.4,-1012.9 67.4,-1012.9 67.4,-1012.9 67.4,-113.7 67.4,-56.61 145.89,-38.2 195.57,-32.27"/>
<polygon fill="black" stroke="black" points="195.82,-35.76 205.4,-31.23 195.09,-28.8 195.82,-35.76"/>
</g>
<!-- N5 -->
<g id="node5" class="node">
<title>N5</title>
<polygon fill="#fff3cd" stroke="black" points="199.4,-1119.7 95.45,-1078.1 199.4,-1036.5 303.35,-1078.1 199.4,-1119.7"/>
<text xml:space="preserve" text-anchor="middle" x="199.4" y="-1082.3" font-family="Helvetica,sans-Serif" font-size="14.00">5. ¿No existe</text>
<text xml:space="preserve" text-anchor="middle" x="199.4" y="-1065.5" font-family="Helvetica,sans-Serif" font-size="14.00">la asignatura?</text>
</g>
<!-- N4&#45;&gt;N5 -->
<g id="edge4" class="edge">
<title>N4&#45;&gt;N5</title>
<path fill="none" stroke="black" d="M195.92,-1196.9C196.41,-1180.23 197.18,-1154.23 197.87,-1130.89"/>
<polygon fill="black" stroke="black" points="201.36,-1131.31 198.16,-1121.21 194.36,-1131.11 201.36,-1131.31"/>
</g>
<!-- N6 -->
<g id="node6" class="node">
<title>N6</title>
<polygon fill="#f8d7da" stroke="black" points="252.76,-886.1 82.05,-886.1 82.05,-844.5 252.76,-844.5 252.76,-886.1"/>
<text xml:space="preserve" text-anchor="middle" x="167.4" y="-869.5" font-family="Helvetica,sans-Serif" font-size="14.00">6. 404</text>
<text xml:space="preserve" text-anchor="middle" x="167.4" y="-852.7" font-family="Helvetica,sans-Serif" font-size="14.00">&quot;La asignatura no existe&quot;</text>
</g>
<!-- N5&#45;&gt;N6 -->
<g id="edge5" class="edge">
<title>N5&#45;&gt;N6</title>
<path fill="none" stroke="black" d="M193.53,-1038.44C187.4,-998.01 177.88,-935.31 172.18,-897.79"/>
<polygon fill="black" stroke="black" points="175.67,-897.41 170.7,-888.04 168.74,-898.46 175.67,-897.41"/>
<text xml:space="preserve" text-anchor="middle" x="195.88" y="-1008.6" font-family="Helvetica,sans-Serif" font-size="11.00">sí</text>
</g>
<!-- N7 -->
<g id="node7" class="node">
<title>N7</title>
<polygon fill="#fff3cd" stroke="black" points="361.4,-987.3 195.18,-945.7 361.4,-904.1 527.63,-945.7 361.4,-987.3"/>
<text xml:space="preserve" text-anchor="middle" x="361.4" y="-949.9" font-family="Helvetica,sans-Serif" font-size="14.00">7. ¿Es profesor y no es</text>
<text xml:space="preserve" text-anchor="middle" x="361.4" y="-933.1" font-family="Helvetica,sans-Serif" font-size="14.00">dueño de la asignatura?</text>
</g>
<!-- N5&#45;&gt;N7 -->
<g id="edge6" class="edge">
<title>N5&#45;&gt;N7</title>
<path fill="none" stroke="black" d="M233.36,-1049.77C256.69,-1030.99 287.97,-1005.81 313.78,-985.04"/>
<polygon fill="black" stroke="black" points="315.88,-987.84 321.47,-978.84 311.49,-982.39 315.88,-987.84"/>
<text xml:space="preserve" text-anchor="middle" x="291.38" y="-1008.6" font-family="Helvetica,sans-Serif" font-size="11.00">no</text>
</g>
<!-- N6&#45;&gt;Fin -->
<g id="edge21" class="edge">
<title>N6&#45;&gt;Fin</title>
<path fill="none" stroke="black" d="M165.63,-844.25C163,-812.88 158.4,-750.3 158.4,-697.1 158.4,-697.1 158.4,-697.1 158.4,-113.7 158.4,-86.38 180.74,-64.05 201.35,-49.26"/>
<polygon fill="black" stroke="black" points="203.03,-52.35 209.36,-43.85 199.12,-46.55 203.03,-52.35"/>
</g>
<!-- N8 -->
<g id="node8" class="node">
<title>N8</title>
<polygon fill="#f8d7da" stroke="black" points="393.12,-725.3 173.69,-725.3 173.69,-666.9 393.12,-666.9 393.12,-725.3"/>
<text xml:space="preserve" text-anchor="middle" x="283.4" y="-708.7" font-family="Helvetica,sans-Serif" font-size="14.00">8. 403</text>
<text xml:space="preserve" text-anchor="middle" x="283.4" y="-691.9" font-family="Helvetica,sans-Serif" font-size="14.00">&quot;No puedes registrar</text>
<text xml:space="preserve" text-anchor="middle" x="283.4" y="-675.1" font-family="Helvetica,sans-Serif" font-size="14.00">evaluaciones de otra asignatura&quot;</text>
</g>
<!-- N7&#45;&gt;N8 -->
<g id="edge7" class="edge">
<title>N7&#45;&gt;N8</title>
<path fill="none" stroke="black" d="M339.96,-909.22C327.11,-886.37 311.55,-855.6 302.4,-826.5 293.23,-797.29 288.45,-762.95 285.98,-736.99"/>
<polygon fill="black" stroke="black" points="289.48,-736.87 285.13,-727.21 282.51,-737.47 289.48,-736.87"/>
<text xml:space="preserve" text-anchor="middle" x="333.2" y="-862" font-family="Helvetica,sans-Serif" font-size="11.00">sí</text>
</g>
<!-- N9 -->
<g id="node9" class="node">
<title>N9</title>
<polygon fill="#fff3cd" stroke="black" points="505.4,-826.5 311.18,-784.9 505.4,-743.3 699.62,-784.9 505.4,-826.5"/>
<text xml:space="preserve" text-anchor="middle" x="505.4" y="-789.1" font-family="Helvetica,sans-Serif" font-size="14.00">9. ¿La carrera del estudiante</text>
<text xml:space="preserve" text-anchor="middle" x="505.4" y="-772.3" font-family="Helvetica,sans-Serif" font-size="14.00">no cursa la asignatura?</text>
</g>
<!-- N7&#45;&gt;N9 -->
<g id="edge8" class="edge">
<title>N7&#45;&gt;N9</title>
<path fill="none" stroke="black" d="M391.59,-911.41C413.47,-887.29 443.23,-854.47 466.83,-828.44"/>
<polygon fill="black" stroke="black" points="469.12,-831.13 473.25,-821.37 463.93,-826.42 469.12,-831.13"/>
<text xml:space="preserve" text-anchor="middle" x="456.65" y="-862" font-family="Helvetica,sans-Serif" font-size="11.00">no</text>
</g>
<!-- N8&#45;&gt;Fin -->
<g id="edge22" class="edge">
<title>N8&#45;&gt;Fin</title>
<path fill="none" stroke="black" d="M265.1,-666.55C245.26,-632.82 216.4,-574.32 216.4,-519.5 216.4,-519.5 216.4,-519.5 216.4,-113.7 216.4,-98.09 219.55,-81.23 223.28,-66.73"/>
<polygon fill="black" stroke="black" points="226.64,-67.7 225.94,-57.13 219.9,-65.83 226.64,-67.7"/>
</g>
<!-- N10 -->
<g id="node10" class="node">
<title>N10</title>
<polygon fill="#f8d7da" stroke="black" points="472.56,-547.7 242.25,-547.7 242.25,-489.3 472.56,-489.3 472.56,-547.7"/>
<text xml:space="preserve" text-anchor="middle" x="357.4" y="-531.1" font-family="Helvetica,sans-Serif" font-size="14.00">10. 400</text>
<text xml:space="preserve" text-anchor="middle" x="357.4" y="-514.3" font-family="Helvetica,sans-Serif" font-size="14.00">&quot;El estudiante no pertenece a una</text>
<text xml:space="preserve" text-anchor="middle" x="357.4" y="-497.5" font-family="Helvetica,sans-Serif" font-size="14.00">carrera que cursa esta asignatura&quot;</text>
</g>
<!-- N9&#45;&gt;N10 -->
<g id="edge9" class="edge">
<title>N9&#45;&gt;N10</title>
<path fill="none" stroke="black" d="M484.98,-747.42C457.09,-697.58 407.3,-608.64 378.87,-557.86"/>
<polygon fill="black" stroke="black" points="381.99,-556.27 374.05,-549.25 375.88,-559.68 381.99,-556.27"/>
<text xml:space="preserve" text-anchor="middle" x="476.54" y="-692.8" font-family="Helvetica,sans-Serif" font-size="11.00">sí</text>
</g>
<!-- N11 -->
<g id="node11" class="node">
<title>N11</title>
<polygon fill="#fff3cd" stroke="black" points="546.4,-648.9 444.8,-607.3 546.4,-565.7 648.01,-607.3 546.4,-648.9"/>
<text xml:space="preserve" text-anchor="middle" x="546.4" y="-611.5" font-family="Helvetica,sans-Serif" font-size="14.00">11. ¿Se envió</text>
<text xml:space="preserve" text-anchor="middle" x="546.4" y="-594.7" font-family="Helvetica,sans-Serif" font-size="14.00">calificación?</text>
</g>
<!-- N9&#45;&gt;N11 -->
<g id="edge10" class="edge">
<title>N9&#45;&gt;N11</title>
<path fill="none" stroke="black" d="M514.5,-744.93C520.58,-718.91 528.61,-684.5 535.1,-656.73"/>
<polygon fill="black" stroke="black" points="538.47,-657.67 537.34,-647.13 531.66,-656.08 538.47,-657.67"/>
<text xml:space="preserve" text-anchor="middle" x="538.09" y="-692.8" font-family="Helvetica,sans-Serif" font-size="11.00">no</text>
</g>
<!-- N10&#45;&gt;Fin -->
<g id="edge23" class="edge">
<title>N10&#45;&gt;Fin</title>
<path fill="none" stroke="black" d="M291.18,-489.04C284.41,-483.95 278.25,-478.07 273.4,-471.3 245.31,-432.12 254.4,-412.72 254.4,-364.5 254.4,-364.5 254.4,-364.5 254.4,-113.7 254.4,-98.09 251.26,-81.23 247.53,-66.73"/>
<polygon fill="black" stroke="black" points="250.91,-65.83 244.86,-57.13 244.17,-67.7 250.91,-65.83"/>
</g>
<!-- N12 -->
<g id="node12" class="node">
<title>N12</title>
<polygon fill="#fff3cd" stroke="black" points="464.4,-471.3 282.65,-429.7 464.4,-388.1 646.16,-429.7 464.4,-471.3"/>
<text xml:space="preserve" text-anchor="middle" x="464.4" y="-433.9" font-family="Helvetica,sans-Serif" font-size="14.00">12. ¿Calificación no entera</text>
<text xml:space="preserve" text-anchor="middle" x="464.4" y="-417.1" font-family="Helvetica,sans-Serif" font-size="14.00">o fuera de 0&#45;5?</text>
</g>
<!-- N11&#45;&gt;N12 -->
<g id="edge11" class="edge">
<title>N11&#45;&gt;N12</title>
<path fill="none" stroke="black" d="M530.4,-572.03C517.85,-545.15 500.25,-507.46 486.38,-477.76"/>
<polygon fill="black" stroke="black" points="489.69,-476.57 482.28,-468.99 483.34,-479.53 489.69,-476.57"/>
<text xml:space="preserve" text-anchor="middle" x="523.35" y="-515.2" font-family="Helvetica,sans-Serif" font-size="11.00">sí</text>
</g>
<!-- N14 -->
<g id="node14" class="node">
<title>N14</title>
<polygon fill="#fff3cd" stroke="black" points="601.4,-338.9 449.91,-320.9 601.4,-302.9 752.9,-320.9 601.4,-338.9"/>
<text xml:space="preserve" text-anchor="middle" x="601.4" y="-316.7" font-family="Helvetica,sans-Serif" font-size="14.00">14. ¿calificación &gt;= 3?</text>
</g>
<!-- N11&#45;&gt;N14 -->
<g id="edge12" class="edge">
<title>N11&#45;&gt;N14</title>
<path fill="none" stroke="black" d="M578.73,-578.45C605.05,-553.45 640.25,-514.19 655.4,-471.3 667.72,-436.44 667.81,-422.94 655.4,-388.1 649.64,-371.91 638.03,-356.82 627.05,-345.14"/>
<polygon fill="black" stroke="black" points="629.84,-342.99 620.32,-338.35 624.87,-347.92 629.84,-342.99"/>
<text xml:space="preserve" text-anchor="middle" x="670.79" y="-426.4" font-family="Helvetica,sans-Serif" font-size="11.00">no</text>
</g>
<!-- N13 -->
<g id="node13" class="node">
<title>N13</title>
<polygon fill="#f8d7da" stroke="black" points="436.37,-284.9 292.44,-284.9 292.44,-226.5 436.37,-226.5 436.37,-284.9"/>
<text xml:space="preserve" text-anchor="middle" x="364.4" y="-268.3" font-family="Helvetica,sans-Serif" font-size="14.00">13. 400</text>
<text xml:space="preserve" text-anchor="middle" x="364.4" y="-251.5" font-family="Helvetica,sans-Serif" font-size="14.00">&quot;La calificación debe</text>
<text xml:space="preserve" text-anchor="middle" x="364.4" y="-234.7" font-family="Helvetica,sans-Serif" font-size="14.00">estar entre 0 y 5&quot;</text>
</g>
<!-- N12&#45;&gt;N13 -->
<g id="edge13" class="edge">
<title>N12&#45;&gt;N13</title>
<path fill="none" stroke="black" d="M443.44,-392.65C426.84,-364.1 403.71,-324.31 386.76,-295.15"/>
<polygon fill="black" stroke="black" points="389.85,-293.51 381.8,-286.63 383.8,-297.03 389.85,-293.51"/>
<text xml:space="preserve" text-anchor="middle" x="435.01" y="-360.2" font-family="Helvetica,sans-Serif" font-size="11.00">sí</text>
</g>
<!-- N12&#45;&gt;N14 -->
<g id="edge14" class="edge">
<title>N12&#45;&gt;N14</title>
<path fill="none" stroke="black" d="M505.14,-396.95C526.96,-379.93 553.32,-359.39 572.93,-344.1"/>
<polygon fill="black" stroke="black" points="575.04,-346.9 580.77,-337.99 570.73,-341.38 575.04,-346.9"/>
<text xml:space="preserve" text-anchor="middle" x="559.3" y="-360.2" font-family="Helvetica,sans-Serif" font-size="11.00">no</text>
</g>
<!-- N13&#45;&gt;Fin -->
<g id="edge24" class="edge">
<title>N13&#45;&gt;Fin</title>
<path fill="none" stroke="black" d="M326.4,-226.21C320.82,-220.79 315.57,-214.82 311.4,-208.5 277.08,-156.42 296.64,-130.53 268.4,-74.9 265.82,-69.82 262.7,-64.68 259.41,-59.78"/>
<polygon fill="black" stroke="black" points="262.51,-58.11 253.87,-51.97 256.8,-62.16 262.51,-58.11"/>
</g>
<!-- N15a -->
<g id="node15" class="node">
<title>N15a</title>
<polygon fill="#d4edda" stroke="black" points="502.87,-208.5 319.94,-208.5 319.94,-172.5 502.87,-172.5 502.87,-208.5"/>
<text xml:space="preserve" text-anchor="middle" x="411.4" y="-186.3" font-family="Helvetica,sans-Serif" font-size="14.00">15a. estado = APROBADA</text>
</g>
<!-- N14&#45;&gt;N15a -->
<g id="edge15" class="edge">
<title>N14&#45;&gt;N15a</title>
<path fill="none" stroke="black" d="M579.61,-305.17C547.08,-283.19 485.5,-241.57 446.55,-215.26"/>
<polygon fill="black" stroke="black" points="448.67,-212.46 438.42,-209.76 444.75,-218.26 448.67,-212.46"/>
<text xml:space="preserve" text-anchor="middle" x="551.07" y="-252.4" font-family="Helvetica,sans-Serif" font-size="11.00">sí</text>
</g>
<!-- N15b -->
<g id="node16" class="node">
<title>N15b</title>
<polygon fill="#d1ecf1" stroke="black" points="706.03,-208.5 520.78,-208.5 520.78,-172.5 706.03,-172.5 706.03,-208.5"/>
<text xml:space="preserve" text-anchor="middle" x="613.4" y="-186.3" font-family="Helvetica,sans-Serif" font-size="14.00">15b. estado = PENDIENTE</text>
</g>
<!-- N14&#45;&gt;N15b -->
<g id="edge16" class="edge">
<title>N14&#45;&gt;N15b</title>
<path fill="none" stroke="black" d="M603,-302.85C604.98,-281.65 608.39,-245.16 610.76,-219.76"/>
<polygon fill="black" stroke="black" points="614.22,-220.41 611.66,-210.13 607.25,-219.76 614.22,-220.41"/>
<text xml:space="preserve" text-anchor="middle" x="615.98" y="-252.4" font-family="Helvetica,sans-Serif" font-size="11.00">no</text>
</g>
<!-- N16 -->
<g id="node17" class="node">
<title>N16</title>
<polygon fill="#d4edda" stroke="black" points="492.17,-135.5 330.64,-135.5 330.64,-93.9 492.17,-93.9 492.17,-135.5"/>
<text xml:space="preserve" text-anchor="middle" x="411.4" y="-118.9" font-family="Helvetica,sans-Serif" font-size="14.00">16. Guardar evaluación</text>
<text xml:space="preserve" text-anchor="middle" x="411.4" y="-102.1" font-family="Helvetica,sans-Serif" font-size="14.00">(upsert)</text>
</g>
<!-- N15a&#45;&gt;N16 -->
<g id="edge17" class="edge">
<title>N15a&#45;&gt;N16</title>
<path fill="none" stroke="black" d="M411.4,-172.01C411.4,-164.65 411.4,-155.86 411.4,-147.43"/>
<polygon fill="black" stroke="black" points="414.9,-147.45 411.4,-137.45 407.9,-147.45 414.9,-147.45"/>
</g>
<!-- N15b&#45;&gt;N16 -->
<g id="edge18" class="edge">
<title>N15b&#45;&gt;N16</title>
<path fill="none" stroke="black" d="M565.53,-172.01C539.26,-162.41 506.27,-150.36 477.57,-139.88"/>
<polygon fill="black" stroke="black" points="478.81,-136.6 468.22,-136.46 476.41,-143.18 478.81,-136.6"/>
</g>
<!-- N16&#45;&gt;Fin -->
<g id="edge19" class="edge">
<title>N16&#45;&gt;Fin</title>
<path fill="none" stroke="black" d="M369.25,-93.52C339.31,-79.19 299.55,-60.16 271.16,-46.57"/>
<polygon fill="black" stroke="black" points="272.78,-43.46 262.25,-42.3 269.75,-49.78 272.78,-43.46"/>
</g>
</g>
</svg>
